<svg width="24" height="25" viewBox="0 0 24 25" fill="none" xmlns="http://www.w3.org/2000/svg">
<path d="M23.9096 18.4646L22.4321 15.5097C22.2898 15.225 22.0709 14.9856 21.8002 14.8182C21.5294 14.6509 21.2173 14.5622 20.899 14.5623H20.4976C20.2011 13.1709 19.6741 11.8389 18.9382 10.6214C18.0555 8.95106 17.1429 7.22374 17.1429 5.14286C17.1429 3.77889 16.6011 2.47078 15.6366 1.50631C14.6722 0.541835 13.364 0 12.0001 0C10.6361 0 9.328 0.541835 8.36352 1.50631C7.39905 2.47078 6.85722 3.77889 6.85722 5.14286C6.73561 7.03931 6.13115 8.87318 5.10127 10.4703C4.33102 11.7303 3.78825 13.1159 3.49773 14.5639H3.10156C2.78311 14.5639 2.47095 14.6526 2.20007 14.8201C1.92919 14.9875 1.71028 15.2271 1.56787 15.5119L0.0905014 18.4662C0.0190172 18.6092 -0.0110704 18.7693 0.00363666 18.9284C0.0183437 19.0876 0.0772594 19.2394 0.17373 19.3669L3.62742 23.9314C4.02011 24.4028 4.56843 24.7182 5.17333 24.8207C5.77823 24.9232 6.39984 24.8059 6.92587 24.4902L8.53173 23.5267C9.65803 23.8553 10.8269 24.0148 12.0001 24C13.174 24.0151 14.3436 23.8555 15.4705 23.5263L17.0744 24.4886C17.4722 24.7291 17.9282 24.8565 18.3931 24.8571C18.7773 24.8551 19.1563 24.768 19.5029 24.6023C19.8495 24.4365 20.1551 24.1961 20.3978 23.8983L23.8264 19.3653C23.9228 19.2378 23.9817 19.0859 23.9964 18.9268C24.0111 18.7676 23.981 18.6076 23.9096 18.4646ZM17.4225 11.4225C18.0071 12.4042 18.4566 13.4604 18.7589 14.5623H16.9184C16.703 13.784 16.422 13.0254 16.0784 12.2947C15.7563 11.6236 15.5039 10.9212 15.325 10.1986C15.6515 9.8202 15.9396 9.41027 16.1851 8.97489L16.218 8.91334C16.575 9.77035 16.9771 10.6079 17.4225 11.4225ZM8.5715 16.2857C8.63762 15.132 8.95123 14.0061 9.49104 12.9843C9.71073 12.4851 9.93316 11.9766 10.1133 11.4421C10.6752 11.8062 11.3305 12 12.0001 12C12.6697 12 13.3249 11.8062 13.8868 11.4421C14.0668 11.9766 14.2897 12.4851 14.5091 12.9843C15.0489 14.0061 15.3625 15.132 15.4286 16.2857C15.4286 17.3898 15.0733 18.8571 12.0001 18.8571C8.92687 18.8571 8.5715 17.3898 8.5715 16.2857ZM14.1519 8.93554C13.9086 9.29943 13.5911 9.60781 13.2202 9.84049C12.8494 10.0732 12.4336 10.2249 12.0001 10.2857C11.5665 10.2248 11.1507 10.073 10.7798 9.84027C10.4089 9.60753 10.0914 9.29908 9.84804 8.93511C11.2416 8.44992 12.7583 8.45035 14.1519 8.93554ZM8.5715 5.14286C8.5715 4.23354 8.93272 3.36147 9.57571 2.71849C10.2187 2.07551 11.0908 1.71429 12.0001 1.71429C12.9094 1.71429 13.7815 2.07551 14.4244 2.71849C15.0674 3.36147 15.4286 4.23354 15.4286 5.14286C15.4324 6.0476 15.5673 6.94702 15.8292 7.81303C15.4291 7.59135 15.0077 7.41036 14.5715 7.27277V5.14286H12.8572V6.9036C12.2875 6.84166 11.7127 6.84166 11.1429 6.9036V5.14286H9.42865V7.27277C8.98872 7.41121 8.56409 7.59421 8.16136 7.81894C8.42959 6.95209 8.56781 6.05025 8.5715 5.14286ZM6.61259 11.2793C7.0406 10.5059 7.42818 9.71076 7.77376 8.89714L7.81524 8.97429C8.0607 9.40967 8.3488 9.8196 8.6753 10.198C8.49647 10.9206 8.24403 11.623 7.92196 12.2941C7.57796 13.0253 7.29666 13.7845 7.0811 14.5633H5.23267C5.5274 13.4063 5.99245 12.2996 6.61259 11.2793ZM7.78756 21.9743L6.04362 23.0206C5.87488 23.1249 5.67487 23.1665 5.47856 23.1382C5.28225 23.1099 5.10214 23.0135 4.9697 22.8658L1.86213 18.7571L3.10139 16.2782H6.27796L8.13436 20.9017C8.21534 21.0923 8.22485 21.3057 8.16114 21.5027C8.09744 21.6998 7.96479 21.8672 7.78756 21.9743ZM9.7727 22.0752C9.97967 21.4869 9.96252 20.843 9.72453 20.2666C10.4637 20.4808 11.2306 20.5835 12.0001 20.5714C12.77 20.5835 13.5373 20.4805 14.2768 20.2659C14.0418 20.843 14.0252 21.486 14.23 22.0745C12.7576 22.3555 11.2451 22.3561 9.7727 22.0752ZM19.0556 22.8323C18.9251 22.9901 18.7423 23.0957 18.5405 23.13C18.3387 23.1643 18.1313 23.1249 17.9561 23.019L16.2125 21.9727C16.0331 21.8631 15.8996 21.6919 15.8372 21.4911C15.7747 21.2903 15.7875 21.0736 15.8731 20.8815L17.7219 16.2765H20.8983L22.1378 18.7554L19.0556 22.8323Z" fill="white"/>
</svg>
