<svg width="1276" height="720" viewBox="0 0 1276 720" fill="none" xmlns="http://www.w3.org/2000/svg">
<path d="M-4 -24V-11.2L8.8 -24H-4ZM76.512 -24L74.6304 -22.1696L225.798 126.554L330.63 22.3232L286.125 -23.3984L286.675 -24H261.101L260.525 -23.3984L305.03 22.3232L225.798 100.954L101.446 -21.5424L103.955 -24H76.512ZM163.027 -24L176.429 -10.5984L189.83 -24H163.027ZM348.294 -24L439.725 67.4304L408.646 99.7248L364.742 54.6304L302.598 113.152L408.045 217.37L557.37 67.4304L465.581 -24H439.878L532.371 68.0448L408.646 192.371L328.8 113.754L364.154 80.8576L408.646 127.155L465.952 68.0448L374.522 -23.3984L375.136 -24H348.294ZM531.181 -24L592.723 37.5552L651.245 -20.9408L648.198 -24H621.997L625.645 -20.352L592.723 12.5696L556.154 -24H531.181ZM711.251 -24L485.459 205.171L543.955 264.307L828 -19.7376L824.122 -24H799.712L803.014 -20.352L544.582 238.106L511.661 205.171L736.57 -24H711.251ZM897.478 -24L851.142 22.336L955.398 126.554L1105.32 -23.3984L1104.72 -24H1079.75L1080.35 -23.3984L956 100.954L877.37 22.3232L910.266 -10.5984L956 35.1232L1015.14 -24H988.922L955.398 9.536L921.875 -24H897.478ZM1171.78 -24L1125.45 22.336L1183.94 80.8448L1276 -11.2256V-24H1263.8L1184.57 55.2448L1151.65 22.3232L1197.98 -24H1171.78ZM45.3824 4.0448L-4 53.9648V80.0768L44.1536 30.848L78.2784 69.8752L-3.3984 149.107L-4 148.467V175.322L103.264 71.7056L45.3824 4.0448ZM1276 53.9648L1217.48 113.152L1276 175.322V148.48L1243.08 113.754L1276 80.064V53.9648ZM818.246 55.2448L759.725 113.741L818.246 172.275L876.742 113.754L818.246 55.2448ZM1092.52 55.2448L955.398 192.371L909.677 146.675L851.155 205.171L955.398 309.402L1151.05 113.754L1092.52 55.2448ZM818.246 80.8448L851.142 113.741L818.246 146.675L785.325 113.754L818.246 80.8576V80.8448ZM1093.15 80.8448L1126.05 113.741L956 283.814L877.37 205.184L910.266 172.288L956 217.971L1093.15 80.8448ZM132.525 104L-4 240.55V266.15L132.525 129.6L165.446 162.522L-4 331.981V357.581L191.046 162.522L132.525 104ZM726.829 146.675L543.955 329.523L449.478 235.059L345.248 339.277L403.77 397.798L449.466 352.077L485.446 388.045L406.829 466.675L269.664 329.523L211.142 388.045L406.816 583.706L726.816 263.706L863.955 400.832L922.477 342.31L726.829 146.675ZM1183.96 149.722L1125.46 208.218L1275.4 358.17L1276 357.581V332.57L1151.65 208.23L1184.57 175.334L1276 266.739V240.538L1275.4 241.139L1183.96 149.722ZM273.325 150.925L119.725 296.589L178.246 356.352L272.122 263.706L315.398 309.402L374.534 250.266L273.325 150.925ZM726.829 171.661L896.864 341.709L863.942 374.605L726.816 237.466L406.816 557.466L236.742 387.418L269.664 354.522L406.816 491.635L511.034 387.418L449.466 325.862L403.77 371.558L370.835 338.662L449.466 260.032L543.93 354.509L726.816 171.635L726.829 171.661ZM272.723 177.152L348.294 250.906L316 283.2L272.736 238.106L178.848 331.354L145.952 297.818L272.723 177.152ZM1092.52 238.106L1034.03 296.602L1229.66 492.275L1275.99 445.939V421.568L1092.52 238.106ZM1093.15 263.706L1263.2 433.754L1230.28 466.675L1060.23 296.602L1093.15 263.706ZM1004.15 326.477L863.955 466.675L818.259 420.954L759.725 479.475L863.955 583.706L1062.68 384.998L1004.15 326.477ZM86.8288 329.523L28.2944 388.045L223.968 583.706L282.49 525.171L86.8288 329.536V329.523ZM726.829 329.523L576.864 479.475L635.386 537.971L785.312 388.045L726.829 329.523ZM1004.76 352.077L1037.68 384.998L864.57 558.106L785.952 479.475L818.848 446.554L864.57 492.275L1004.76 352.077ZM86.8288 355.123L256.864 525.171L223.942 558.106L53.8944 388.032L86.8288 355.123ZM726.829 355.123L759.725 388.045L635.398 512.371L602.477 479.475L726.829 355.123ZM1092.52 420.954L1034.03 479.475L1183.96 629.402L1242.48 570.906L1092.52 420.954ZM-4 421.555V445.952L8.1984 433.754L-4 421.555ZM1093.15 446.554L1217.48 570.906L1184.58 603.802L1060.23 479.475L1093.15 446.554ZM41.0944 469.722L-4 512.026V538.65L28.2944 569.677L-4 602.854V629.99L86.8288 720.845L191.046 616.602L41.0944 469.722ZM41.0944 494.694L165.446 616L86.8288 694.63L8.1984 616L53.8944 568.448L8.8 524.57L41.0944 494.694ZM1276 512.026L1261.97 525.171L1276 538.65V512.026ZM543.955 512.371L485.459 570.906L543.955 629.402L602.477 570.906L543.955 512.371ZM726.829 512.371L576.864 662.336L635.386 720.858L726.816 629.414L863.942 766.566L922.464 708.07L726.816 512.384L726.829 512.371ZM1001.72 512.371L897.478 616.602L956 675.123L1001.72 629.402L1093.15 720.845L1151.65 662.323L1001.72 512.371ZM543.955 537.971L576.877 570.906L543.955 603.802L511.059 570.906L543.955 537.971ZM726.829 537.971L896.864 708.045L863.942 740.941L726.816 603.802L635.386 695.245L602.464 662.323L726.829 537.971ZM1001.72 537.971L1126.05 662.323L1093.15 695.245L1001.72 603.802L956 649.523L923.078 616.602L1001.72 537.971ZM315.398 558.106L119.725 753.754L178.246 812.275L373.894 616.602L315.398 558.106ZM315.398 583.706L348.294 616.602L178.246 786.675L145.325 753.754L315.398 583.706ZM1276 602.854L1262.6 616.602L1276 630.003V602.854ZM452.525 603.802L394.029 662.323L635.398 903.706L785.325 753.754L726.829 695.258L635.398 786.675L452.525 603.802ZM452.525 629.402L635.398 812.275L726.829 720.845L759.725 753.741L635.398 878.106L419.629 662.323L452.525 629.402ZM1232.72 652.57L1174.2 711.066L1276 812.89V786.662L1200.43 711.091L1233.32 678.195L1276 720.832V695.834L1232.72 652.57ZM361.094 695.245L119.725 936.602L178.246 995.123L269.677 903.706L361.094 995.123L419.629 936.602L328.198 845.171L361.094 812.275L452.525 903.706L511.046 845.171L361.094 695.245ZM1001.09 695.245L896.877 799.475L1001.09 903.706L1059.63 845.171L1013.89 799.475L1059.63 753.754L1001.09 695.245ZM-4 695.846V721.446L119.725 845.171L86.8288 878.106L-4 787.264V812.864L86.8288 903.693L145.325 845.158L-4 695.846ZM361.094 720.23L485.446 844.57L452.525 877.466L361.094 786.048L302.598 844.57L394.029 936L361.094 968.922L269.677 877.478L178.246 968.922L145.325 936L361.094 720.23ZM1001.09 720.845L1034.03 753.741L988.294 799.475L1034.03 845.171L1001.09 878.106L922.477 799.475L1001.09 720.845ZM1138.25 740.941L1079.72 799.475L1125.45 845.171L1037.08 933.555L1095.57 992.077L1242.48 845.171L1138.25 740.941ZM1138.85 766.541L1217.48 845.171L1096.2 966.477L1063.28 933.555L1151.65 845.171L1105.95 799.475L1138.85 766.541ZM818.246 786.675L714.029 890.906L772.525 949.402L876.755 845.171L818.246 786.675ZM818.246 812.275L851.142 845.171L772.525 923.802L739.629 890.906L818.246 812.275ZM543.942 878.106L361.107 1060.95L269.69 969.523L211.168 1028.02L361.107 1177.97L602.49 936.602L543.968 878.106H543.942ZM909.677 878.106L851.155 936.602L1001.09 1086.55L1059.63 1028.02L909.677 878.106ZM1275.4 878.106L1125.45 1028.02L1183.94 1084.72L1275.4 995.123L1276 995.725V968.922L1184.57 1059.12L1151.65 1027.43L1276 903.078V878.694L1275.4 878.106ZM-4 878.694V903.68L211.155 1118.85L178.259 1151.77L132.525 1106.05L41.0944 1197.48L-4 1152.37V1178.61L41.0944 1223.71L132.525 1132.28L178.246 1177.97L236.742 1119.48L-4 878.694ZM543.955 903.706L576.877 936.602L361.094 1152.37L236.755 1028.02L269.677 995.123L361.094 1086.55L543.968 903.706H543.955ZM909.677 903.706L1034.03 1028.02L1001.09 1060.95L876.755 936.602L909.677 903.706ZM681.094 923.802L622.598 982.323L681.094 1040.82L739.629 982.323L681.094 923.802ZM681.094 949.402L714.029 982.323L681.094 1015.22L648.198 982.323L681.094 949.402ZM-4 969.523V995.725L74.0288 1073.75L41.0944 1107.88L-4 1061.57V1086.57L41.0944 1133.47L99.6288 1073.14L-4 969.523ZM818.246 969.523L681.094 1106.68L589.677 1015.22L531.155 1073.75L681.094 1223.71L876.768 1028.02L818.272 969.523H818.246ZM818.246 995.123L851.142 1028.02L681.094 1198.11L556.755 1073.75L589.677 1040.82L681.094 1132.28L818.246 995.123ZM909.677 1060.95L805.446 1165.17L863.942 1223.71L909.677 1177.97L955.398 1223.71L1013.89 1165.17L909.677 1060.95ZM1092.52 1060.95L1034.03 1119.48L1135.2 1220.65L1193.72 1162.12L1092.52 1060.95ZM1275.4 1060.95L1216.88 1119.48L1276 1178.61V1151.77L1243.08 1118.85L1276 1085.95V1061.57L1275.4 1060.93V1060.95ZM910.278 1085.95L988.922 1164.57L956 1197.47L910.278 1151.77L864.582 1197.47L831.648 1164.57L910.278 1085.95ZM1093.15 1086.55L1168.72 1162.12L1135.8 1195.05L1060.23 1119.48L1093.15 1086.55ZM498.246 1106.68L439.725 1165.17L530.554 1256H556.154L465.325 1165.17L498.246 1132.28L621.997 1256H647.597L498.246 1106.68ZM266.63 1152.37L175.802 1243.8L133.152 1201.15L76.4992 1256H103.93L133.754 1226.75L163.027 1256H189.83L267.846 1177.97L303.2 1211.51L261.088 1256H286.675L328.8 1210.28L266.63 1152.37ZM1232.72 1195.05L1171.77 1256H1197.97L1233.32 1220.65L1266.25 1253.54L1263.8 1256H1276V1238.34L1232.72 1195.05ZM770.106 1196.28L711.251 1256H736.57L769.466 1222.46L799.712 1256H824.134L770.106 1196.28ZM406.829 1197.48L348.294 1256H375.123L407.43 1223.71L439.878 1256H465.581L406.829 1197.48ZM1046.83 1198.11L988.922 1256H1015.12L1047.43 1223.71L1079.75 1256H1104.72L1046.83 1198.11ZM-4 1238.3V1256H8.8L11.2448 1253.56L-4 1238.3ZM909.664 1243.8L897.478 1256H921.875L909.664 1243.8Z" fill="#76C1C0" fill-opacity="0.15"/>
</svg>
